<svg height="50" viewBox="0 0 116.52 47.28" xmlns="http://www.w3.org/2000/svg"><g transform="translate(-362.69 -274)"><path d="m472.83 321.07v-4.21a2.52 2.52 0 0 1 .73-1.89 2.09 2.09 0 0 1 1.54-.59c1.22 0 1.83.72 1.83 2.18v4.51h.89v-4.65a3 3 0 0 0 -.63-2.11 2.51 2.51 0 0 0 -1.92-.68 2.78 2.78 0 0 0 -1.48.37 2.22 2.22 0 0 0 -.93 1.09v-4h-.86v10zm-4.48-9.4v2.17h-1.25v.75h1.25v4.94a1.84 1.84 0 0 0 .34 1.27 1.74 1.74 0 0 0 1.25.35h.38.39v-.75h-.7a.76.76 0 0 1 -.6-.2 1.18 1.18 0 0 1 -.17-.75v-4.86h1.47v-.75h-1.47v-2.17zm-2.35-.6h-.88v10h.88zm-3.69 6.05v1.15a2.1 2.1 0 0 1 -.7 1.62 2.52 2.52 0 0 1 -1.77.64 1.75 1.75 0 0 1 -1.19-.4 1.3 1.3 0 0 1 -.47-1 1.16 1.16 0 0 1 .65-1.07 6.32 6.32 0 0 1 2-.48 8.6 8.6 0 0 0 1.12-.2.58.58 0 0 0 .37-.24zm-3.31-2.33a2.19 2.19 0 0 1 1.44-.41c1.23 0 1.84.49 1.84 1.46a.94.94 0 0 1 -.22.73 1.81 1.81 0 0 1 -.91.27 11.31 11.31 0 0 0 -2.79.54 1.81 1.81 0 0 0 -1.09 1.77 1.9 1.9 0 0 0 .95 1.78 3.48 3.48 0 0 0 3 0 3.73 3.73 0 0 0 1.12-1.15 1.65 1.65 0 0 0 .24 1 1 1 0 0 0 .82.27 2.44 2.44 0 0 0 .6-.05v-.74a1 1 0 0 1 -.28.05.46.46 0 0 1 -.52-.52v-3.79c0-1.55-.88-2.32-2.64-2.32a3.23 3.23 0 0 0 -2.15.64 2.07 2.07 0 0 0 -.56.71 3.73 3.73 0 0 0 -.23 1.07h.88a1.77 1.77 0 0 1 .54-1.27m-7.49.27a2.17 2.17 0 0 1 3.24.09 3.16 3.16 0 0 1 .64 1.8h-4.68a3.4 3.4 0 0 1 .8-1.89m4.43.54a2.84 2.84 0 0 0 -2.86-2 2.89 2.89 0 0 0 -2.69 1.51 5.19 5.19 0 0 0 0 4.67 2.94 2.94 0 0 0 2.76 1.46 3.19 3.19 0 0 0 1.9-.55 2.72 2.72 0 0 0 .73-.79 5.4 5.4 0 0 0 .47-1.25h-.88a2.21 2.21 0 0 1 -2.23 1.85 2.17 2.17 0 0 1 -2.08-1.31 4.12 4.12 0 0 1 -.34-1.53h5.56a5.71 5.71 0 0 0 -.33-2.1m-12.52 5.47v-4.21a2.56 2.56 0 0 1 .72-1.89 2.11 2.11 0 0 1 1.55-.59c1.22 0 1.83.72 1.83 2.18v4.51h.88v-4.65a3.09 3.09 0 0 0 -.62-2.11 2.52 2.52 0 0 0 -1.93-.68 2.83 2.83 0 0 0 -1.48.37 2.25 2.25 0 0 0 -.92 1.09v-4h-.88v10zm-8.57 0v-3.85a2.53 2.53 0 0 1 .78-1.92 2.61 2.61 0 0 1 1.91-.67v-.88a2.67 2.67 0 0 0 -2.73 1.79v-1.7h-.86v7.23zm-3.9-5.83a3.38 3.38 0 0 1 .71 2.22 3.49 3.49 0 0 1 -.61 2.09 2.38 2.38 0 0 1 -3.76.12 3.88 3.88 0 0 1 -.08-4.3 2.21 2.21 0 0 1 1.89-1 2.29 2.29 0 0 1 1.85.86m-4.29-.55a4 4 0 0 0 -.95 2.77 4.13 4.13 0 0 0 .75 2.51 3.1 3.1 0 0 0 2.66 1.31 3.14 3.14 0 0 0 2.57-1.16 4.12 4.12 0 0 0 .85-2.66 4.24 4.24 0 0 0 -.74-2.52 3.06 3.06 0 0 0 -2.63-1.3 3.22 3.22 0 0 0 -2.51 1.05m-2.79-.85v-.63a2.19 2.19 0 0 1 .19-1.12.91.91 0 0 1 .77-.28 3.44 3.44 0 0 1 .65.07v-.75a4.37 4.37 0 0 0 -.72-.06 1.69 1.69 0 0 0 -1.36.5 2.52 2.52 0 0 0 -.41 1.62v.65h-1.23v.75h1.19v6.48h.88v-6.48h1.43v-.75zm-12.18 7.23v-4.22a2.52 2.52 0 0 1 .73-1.88 2.1 2.1 0 0 1 1.54-.59c1.23 0 1.84.72 1.84 2.18v4.51h.88v-4.65a3 3 0 0 0 -.63-2.11 2.49 2.49 0 0 0 -1.92-.68 2.78 2.78 0 0 0 -1.48.37 2.33 2.33 0 0 0 -.93 1.09v-1.25h-.88v7.23zm-3.91-5.83a3.38 3.38 0 0 1 .71 2.22 3.49 3.49 0 0 1 -.62 2.09 2.2 2.2 0 0 1 -1.92 1 2.24 2.24 0 0 1 -1.83-.86 3.84 3.84 0 0 1 -.08-4.3 2.18 2.18 0 0 1 1.89-1 2.3 2.3 0 0 1 1.85.86m-4.29-.55a4 4 0 0 0 -.95 2.77 4.13 4.13 0 0 0 .75 2.51 3.09 3.09 0 0 0 2.66 1.31 3.14 3.14 0 0 0 2.57-1.16 4.12 4.12 0 0 0 .85-2.66 4.24 4.24 0 0 0 -.74-2.52 3.07 3.07 0 0 0 -2.64-1.3 3.2 3.2 0 0 0 -2.5 1.05m-2.42-3.62h-.89v1.42h.89zm0 2.77h-.89v7.23h.89zm-2.75 1.2a1.91 1.91 0 0 0 -.42-.64 2.69 2.69 0 0 0 -2.05-.76 3.57 3.57 0 0 0 -1.75.41 1.76 1.76 0 0 0 -1 1.64c0 1 .67 1.6 2 1.9l1.13.26c1.05.23 1.58.67 1.58 1.31a1.14 1.14 0 0 1 -.55 1 2.44 2.44 0 0 1 -1.43.38 2.24 2.24 0 0 1 -1.49-.47 1.87 1.87 0 0 1 -.63-1.33h-.88a3.88 3.88 0 0 0 .24 1.06 2.31 2.31 0 0 0 .49.72 3 3 0 0 0 2.21.77 3.84 3.84 0 0 0 1.9-.45 1.86 1.86 0 0 0 1-1.72 1.78 1.78 0 0 0 -.76-1.51 3.87 3.87 0 0 0 -1.29-.5l-1.18-.26c-1-.23-1.5-.64-1.5-1.24a1 1 0 0 1 .47-.89 2.09 2.09 0 0 1 1.24-.33c1.17 0 1.8.53 1.89 1.57h.88a3.24 3.24 0 0 0 -.18-.91m-6.83-4h-.88v1.42h.88zm0 2.77h-.88v7.23h.88zm-2.6 1.23a2.27 2.27 0 0 0 -.56-.73 2.92 2.92 0 0 0 -2-.7 3.14 3.14 0 0 0 -2.59 1.16 4.1 4.1 0 0 0 -.85 2.66 4.19 4.19 0 0 0 .74 2.51 3.11 3.11 0 0 0 2.67 1.31 2.77 2.77 0 0 0 2.39-1.18 4 4 0 0 0 .6-1.62h-.88a2.55 2.55 0 0 1 -.71 1.5 1.94 1.94 0 0 1 -1.41.55 2.21 2.21 0 0 1 -1.82-.87 3.41 3.41 0 0 1 -.7-2.2 3.49 3.49 0 0 1 .62-2.09 2.23 2.23 0 0 1 1.93-1 2 2 0 0 1 2 1.73h.88a3.71 3.71 0 0 0 -.3-1m-11.83 0a2.17 2.17 0 0 1 3.24.09 3.16 3.16 0 0 1 .72 1.83h-4.68a3.4 3.4 0 0 1 .8-1.89m4.43.54a2.84 2.84 0 0 0 -2.86-2 2.89 2.89 0 0 0 -2.69 1.51 5.19 5.19 0 0 0 0 4.67 2.94 2.94 0 0 0 2.76 1.46 3.19 3.19 0 0 0 1.9-.55 2.72 2.72 0 0 0 .73-.79 5.4 5.4 0 0 0 .47-1.25h-.88a2.2 2.2 0 0 1 -2.23 1.85 2.17 2.17 0 0 1 -2.08-1.31 4.12 4.12 0 0 1 -.34-1.53h5.56a5.71 5.71 0 0 0 -.33-2.1m-9.29 5.47v-3.85a2.56 2.56 0 0 1 .77-1.92 2.62 2.62 0 0 1 1.91-.67v-.88a2.67 2.67 0 0 0 -2.73 1.79v-1.7h-.82v7.23zm-5.3-9.18a2.34 2.34 0 0 1 1.64.53 2 2 0 0 1 .59 1.51 2 2 0 0 1 -.48 1.4 2.27 2.27 0 0 1 -1.75.64h-3.27v-4.08zm-3.27 9.18v-4.28h3.48a3.06 3.06 0 0 0 2.11-.71 2.76 2.76 0 0 0 .86-2.15 2.82 2.82 0 0 0 -.68-2 2.9 2.9 0 0 0 -2.29-.9h-4.43v10z" fill="#181716"/><path d="m477.84 302c.05-2.48 0-19.24 0-19.24s-.08-8.9-11.9-8.8c-7.76.07-11 3.12-11.88 7.3a13.11 13.11 0 0 0 -12.21-7.3c-9.73.15-12.58 7.94-13.19 13.32-.7-5.79-4.49-13.15-13.08-13.31-11.15-.21-13.54 9.42-13.93 14.9a21.62 21.62 0 0 0 0 3.61 8.41 8.41 0 0 0 -1.63-2.13c-2.35-2.38-7.21-3.19-7.67-3.35a48.41 48.41 0 0 1 -4.78-1.29c-.72-.39-2.14-.76-2.17-2.78 0-2.39 3.83-4.42 7.79-2.93a13.12 13.12 0 0 1 4.41 2.7l3.73-4.28a17.78 17.78 0 0 0 -5.26-3.38 14.52 14.52 0 0 0 -8.07-.84 10.43 10.43 0 0 0 -7.57 5.6 10.74 10.74 0 0 0 -.89 3.57c-.08 1.93.84 6 5.93 7.91a53.54 53.54 0 0 0 6.67 1.78c.56.12 4.52.82 4.47 3.8 0 .64-.33 3.05-4.07 3.52-1 .09-4.87.34-9.82-4.22 0 0-3.85 4-3.85 4s5.68 6.06 12.91 6.09c9.5.05 10.94-7.9 10.92-9.23a13.72 13.72 0 0 0 13.05 9.18c8.31-.05 11.32-5.4 12.93-8l-5.2-3s-2.91 5.66-8 5.07c-7.9-.91-7.29-8.78-7.29-8.78h20.43c0 .73.94 14.63 13.69 14.68a12.92 12.92 0 0 0 11-6.09c1.19 2.69 4 6 9.78 6.06a9.46 9.46 0 0 0 8-4v3.31h8.07s-1.37-.79-1.32-3.45zm-69.48-16.1c-.13.07 1.07-6.23 6.78-6.24 5.88 0 6.8 6.3 6.8 6.3zm44.31 9.33-3.34-1.38s-1.73 6.54-7.32 6.16c-5-.34-7.18-5.43-7.19-10.46s2.52-9.85 7.17-9.72 6.78 5.05 6.78 5.05l5.09-2.23a14.78 14.78 0 0 0 0 1.89h6.37s-.86-5.29 5.31-5.27c4.69 0 5.37 2.35 5.43 3.06s0 2.64 0 2.64-6.39 1.58-12 3.14a8.38 8.38 0 0 0 -6.3 7.16zm17.82 1.9a7.77 7.77 0 0 1 -6.82 3.6 4.67 4.67 0 0 1 -4.63-3.45 3.29 3.29 0 0 1 1.09-3.26 12.71 12.71 0 0 1 4.61-2l6.34-1.62v4.4a4.17 4.17 0 0 1 -.59 2.37z" fill="#ee1c25"/></g></svg>